<?xml version="1.0" standalone="no"?>
<!DOCTYPE svg PUBLIC "-//W3C//DTD SVG 20010904//EN"
 "http://www.w3.org/TR/2001/REC-SVG-20010904/DTD/svg10.dtd">
<svg version="1.0" xmlns="http://www.w3.org/2000/svg"
 width="174.000000pt" height="210.000000pt" viewBox="0 0 174.000000 210.000000"
 preserveAspectRatio="xMidYMid meet">

<g transform="translate(0.000000,210.000000) scale(0.100000,-0.100000)"
fill="#000000" stroke="none">
<path d="M0 1050 l0 -1050 870 0 870 0 0 1050 0 1050 -870 0 -870 0 0 -1050z
m1017 856 c430 -91 668 -579 473 -971 -89 -180 -226 -300 -415 -362 -68 -22
-98 -26 -200 -27 -135 0 -195 14 -304 69 -143 72 -255 186 -322 330 -47 101
-62 175 -62 295 1 147 35 255 120 382 153 228 437 341 710 284z m-637 -1548
l1 -43 38 43 c37 40 42 42 95 42 31 0 56 -3 56 -7 0 -4 -20 -28 -45 -53 l-44
-45 49 -78 c28 -42 50 -80 50 -82 0 -3 -25 -5 -55 -5 l-55 0 -25 51 c-26 49
-27 50 -46 33 -11 -10 -19 -30 -19 -51 0 -33 -1 -33 -45 -33 l-45 0 0 135 0
135 45 0 45 0 0 -42z m312 -55 l3 -98 30 0 30 0 3 98 3 97 50 0 51 0 -4 -105
c-3 -102 -4 -105 -35 -136 -61 -62 -183 -47 -217 26 -11 22 -16 62 -16 124 l0
91 50 0 49 0 3 -97z m298 52 c0 -45 0 -45 35 -45 35 0 35 0 35 45 l0 45 50 0
50 0 0 -136 0 -135 -47 3 -48 3 -3 48 c-3 46 -4 47 -38 47 l-34 0 0 -50 0 -50
-45 0 -45 0 0 135 0 135 45 0 45 0 0 -45z m339 -17 l41 -63 0 63 0 62 45 0 45
0 0 -135 0 -135 -42 0 c-41 0 -45 3 -83 59 l-40 59 -5 -56 -5 -57 -42 -3 -43
-3 0 135 0 136 44 0 c42 0 45 -2 85 -62z"/>
<path d="M410 1393 c-62 -25 -109 -95 -110 -162 0 -48 33 -112 72 -138 90 -61
221 -25 257 70 10 26 10 27 -27 27 -28 0 -44 -7 -65 -30 -39 -41 -87 -41 -128
-1 -43 43 -41 101 5 147 19 19 41 34 50 34 26 0 74 -28 86 -50 8 -15 21 -20
50 -20 22 0 40 4 40 9 0 15 -45 74 -72 94 -28 21 -126 33 -158 20z"/>
<path d="M720 1378 c-11 -12 -20 -32 -20 -45 0 -14 -6 -23 -15 -23 -10 0 -15
-10 -15 -30 0 -20 5 -30 15 -30 12 0 15 -17 15 -90 l0 -90 40 0 40 0 0 90 c0
73 3 90 15 90 10 0 15 10 15 30 0 20 -5 30 -15 30 -8 0 -15 7 -15 15 0 8 7 15
15 15 10 0 15 10 15 30 0 28 -3 30 -35 30 -22 0 -41 -8 -55 -22z"/>
<path d="M1030 1355 l0 -44 -47 5 c-27 3 -60 1 -75 -5 -38 -15 -68 -67 -68
-119 0 -78 44 -127 113 -124 17 1 60 1 95 1 l62 0 0 166 0 165 -40 0 -40 0 0
-45z m-18 -122 c24 -21 23 -58 -2 -83 -26 -26 -48 -25 -77 2 -28 26 -29 52 -3
78 24 24 57 26 82 3z"/>
<path d="M1180 1355 c0 -33 -4 -45 -15 -45 -10 0 -15 -10 -15 -30 0 -20 5 -30
15 -30 12 0 15 -13 15 -60 0 -92 13 -112 83 -124 24 -4 27 -2 27 23 0 16 -7
34 -15 41 -10 8 -15 31 -15 66 0 41 4 54 15 54 10 0 15 10 15 30 0 20 -5 30
-15 30 -11 0 -15 12 -15 45 l0 45 -40 0 -40 0 0 -45z"/>
<path d="M1365 1273 c2 -36 5 -38 39 -41 36 -3 36 -3 36 37 0 41 0 41 -38 41
-39 0 -39 0 -37 -37z"/>
<path d="M1369 1145 c0 0 -1 -17 -2 -38 -2 -37 -2 -37 38 -37 40 0 40 0 39 36
-1 38 -3 39 -75 39z"/>
</g>
</svg>
