<svg width="48" height="48" viewBox="0 0 48 48" fill="none" xmlns="http://www.w3.org/2000/svg">
<path d="M48 24C48 37.2548 37.2548 48 24 48C10.7452 48 0 37.2548 0 24C0 10.7452 10.7452 0 24 0C37.2548 0 48 10.7452 48 24Z" fill="#E7591C"/>
<path d="M15.909 25.6449C15.2472 28.0587 13.2209 29.7477 10.6905 29.994C8.81721 30.1763 6.98829 29.5433 5.73143 28.2775C4.85881 27.3988 4.2941 26.316 4.03729 25.0291C3.94915 24.588 3.94947 23.4659 4.03793 22.9945C4.50299 20.5153 6.31658 18.6196 8.68753 18.1347C9.81504 17.9041 10.8624 17.9543 11.9084 18.2887C13.5045 18.7991 14.831 19.9691 15.5592 21.5096C15.7276 21.8651 15.9122 22.3886 15.9483 22.6131L15.9687 22.7402H13.043L13.0065 22.647C12.5843 21.5648 11.7976 20.8043 10.8234 20.537C10.4778 20.4421 9.85656 20.4089 9.50042 20.4664C8.4911 20.6293 7.65649 21.263 7.1761 22.2314C6.23673 24.1242 6.95252 26.5019 8.71277 27.3355C9.36755 27.6457 10.2306 27.7057 10.9253 27.4885C11.8634 27.1956 12.6102 26.4757 12.9877 25.5006L13.0653 25.3003L14.5298 25.2913C15.3353 25.2865 15.9943 25.2942 15.9943 25.3083C15.9943 25.3223 15.9559 25.474 15.909 25.6449Z" fill="white"/>
<path fill-rule="evenodd" clip-rule="evenodd" d="M29.3451 29.1708C29.0577 29.4823 28.606 29.7257 28.0579 29.8643H28.0576C27.8356 29.9202 27.6484 29.9374 27.1665 29.9457C26.5203 29.9566 26.504 29.9556 26.0827 29.8726C25.4621 29.75 24.8778 29.4867 24.375 29.1028C23.8721 28.719 23.464 28.2248 23.1822 27.6585C23.0212 27.3365 22.8245 26.7066 22.758 26.3003C22.6315 25.5283 22.7021 24.4816 22.9299 23.7566C23.4307 22.1615 24.7872 21.0285 26.466 20.804C26.8662 20.7503 27.5951 20.7848 27.9634 20.8749C28.4083 20.9835 28.9027 21.24 29.1675 21.4997L29.3873 21.7149V17.9594H32.3031V29.8266H29.4889V29.0143L29.3451 29.1708ZM25.7224 26.3863C25.9917 26.9328 26.5002 27.3052 27.1329 27.4192C27.2255 27.4358 27.4258 27.4438 27.5775 27.4365C28.1333 27.41 28.5511 27.2375 28.897 26.8925C29.1382 26.652 29.2787 26.4195 29.408 26.0461C29.4895 25.8107 29.502 25.7235 29.5016 25.3849C29.5016 25.046 29.4895 24.9617 29.4096 24.741C29.2812 24.3871 29.1337 24.1562 28.8871 23.9249C28.6587 23.7103 28.3115 23.525 27.9966 23.4484C27.5747 23.3455 26.9665 23.412 26.5577 23.6055C25.594 24.061 25.2088 25.344 25.7224 26.3863Z" fill="white"/>
<path d="M38.6772 27.6981V29.9282L38.1262 29.925C37.238 29.9195 36.7225 29.8173 36.1341 29.5295C35.8629 29.3967 35.7636 29.3235 35.5049 29.0651C35.2474 28.8086 35.174 28.7096 35.0529 28.4573C34.7444 27.8137 34.7102 27.493 34.7102 25.2457V23.5202H33.76L33.7775 21.2655L34.7096 21.2464L34.7271 17.9763H37.6433L37.6609 21.2467L38.1604 21.2556L38.6603 21.2652V23.5027L37.6602 23.5215L37.6609 25.3939C37.6615 27.1583 37.665 27.2745 37.7257 27.4077C37.825 27.6265 37.9193 27.67 38.3271 27.685L38.6772 27.6981Z" fill="white"/>
<path d="M20.8087 23.5202V29.8269H17.9267V23.5222L16.994 23.5033V21.2655L17.9267 21.2467V20.9337C17.928 19.7161 18.2822 18.9441 19.0593 18.4656C19.579 18.1453 20.1644 18.0118 21.2156 17.9728L21.8595 17.9491V20.2249L21.5059 20.2364C21.2134 20.246 21.1364 20.2601 21.0588 20.3182C20.8627 20.4648 20.8288 20.5462 20.8141 20.9104L20.8007 21.2483H21.8595V23.5202H20.8087Z" fill="white"/>
<path d="M44.0512 26.9954L44.0694 29.8266H41.1181L41.1357 26.9954H44.0512Z" fill="white"/>
<path d="M44.0691 21.2483L44.0512 24.0795L43.3901 24.0805C43.0266 24.0811 42.3667 24.077 41.9237 24.0715L41.1184 24.0613V21.2483H44.0691Z" fill="white"/>
</svg>